<svg id="Capa_2" data-name="Capa 2" xmlns="http://www.w3.org/2000/svg" viewBox="0 0 1024 1024"><defs><style>.cls-1{fill:#fae900;}.cls-2,.cls-3{fill:#1d1d1b;}.cls-2{stroke:#1d1d1b;stroke-miterlimit:10;}</style></defs><g id="Face"><circle class="cls-1" cx="512" cy="512" r="461.48" transform="translate(-212.08 512) rotate(-45)"/><path class="cls-1" d="M967.48,512A455.37,455.37,0,0,1,261.8,892.67a459.28,459.28,0,0,1-101.39-91.06A452.81,452.81,0,0,1,57.89,547.7,459.66,459.66,0,0,1,69.35,404.21,455.24,455.24,0,0,1,459.06,59.53a460.91,460.91,0,0,1,144.18,6.12,455.54,455.54,0,0,1,359,376.61A459.92,459.92,0,0,1,967.48,512c0,7.72,12,7.74,12,0a467.4,467.4,0,0,0-828-297.59,471.34,471.34,0,0,0-72.41,121A465.35,465.35,0,0,0,45.94,475.61,470.57,470.57,0,0,0,57.78,623a465.4,465.4,0,0,0,54.39,131.38,468,468,0,0,0,493.6,215.7A467.27,467.27,0,0,0,973.89,584.25,481.37,481.37,0,0,0,979.48,512C979.49,504.28,967.49,504.27,967.48,512Z"/></g><ellipse id="L_Eye" data-name="L Eye" class="cls-2" cx="391.79" cy="332.11" rx="50" ry="136.89"/><ellipse id="R_Eye" data-name="R Eye" class="cls-2" cx="642.61" cy="332.11" rx="50" ry="136.89"/><g id="Mouth"><path class="cls-3" d="M819,534.47c0,7.84-.33,15.68-1,23.49q-.48,5.64-1.18,11.24c-.11.87-.22,1.75-.34,2.62.32-2.33,0-.08-.07.33-.35,2.17-.67,4.34-1.05,6.5a277.27,277.27,0,0,1-11.53,44.11q-1.73,4.89-3.61,9.71l-1,2.4c.08-.2-1.55,3.71-.79,1.93.62-1.47-.44,1-.58,1.32-.43,1-.86,2-1.3,3q-4.74,10.59-10.34,20.78Q781,671.46,775,680.65q-3,4.59-6.17,9.08c-1,1.41-2,2.8-3,4.19-.63.87-1.28,1.73-1.92,2.6-1.5,2,.36-.45-.58.75a313,313,0,0,1-30,33.29q-8.49,8.16-17.6,15.66-2,1.68-4.08,3.31c-.69.55-1.37,1.1-2.07,1.64,1.87-1.46.08-.07-.26.18-3.16,2.39-6.34,4.75-9.57,7a324.32,324.32,0,0,1-39.93,24.09q-10.53,5.37-21.43,10c-2.15.91,1.87-.76-.3.12l-2.52,1c-1.9.75-3.81,1.5-5.72,2.22Q624.13,798,618.29,800a332.26,332.26,0,0,1-190,6.72q-11.68-3-23.14-6.92-5.52-1.87-11-3.92c-1.7-.65-3.4-1.3-5.09-2l-2.53-1c-.05,0-4-1.68-1.71-.7A332.78,332.78,0,0,1,343,770.71q-9.64-5.85-18.88-12.37c-2.53-1.78-6.93-5-8.15-6,1.51,1.15-1.9-1.49-1.7-1.33l-2.07-1.63c-1.54-1.23-3.07-2.48-4.58-3.73a310.42,310.42,0,0,1-32.94-31.62q-3.68-4.1-7.22-8.33c-1.1-1.33-2.2-2.67-3.28-4l-1.62-2c-2.66-3.32,1.62,2.19-.94-1.22-4.41-5.85-8.67-11.79-12.67-17.93A287.35,287.35,0,0,1,227.32,641c-.7-1.57-1.38-3.15-2.07-4.73-1.64-3.81.65,1.63-.29-.71l-1-2.4q-2.15-5.42-4.06-10.92-3.75-10.72-6.61-21.75c-1.92-7.39-3.53-14.87-4.82-22.39-.3-1.74-.58-3.47-.85-5.21-.09-.63-.88-6.27-.52-3.47-.51-4-.91-7.93-1.24-11.9-.62-7.59-.91-15.21-.93-22.82a14,14,0,1,0-28-.21A296.54,296.54,0,0,0,238.24,713.7c40.43,52.62,96.11,91.47,158.85,112.85,65.83,22.43,138.7,24.68,206,7.16,63.49-16.54,122.69-51.28,166.52-100.31C813,684.86,840.34,623.81,846,558.83c.7-8,1-16.09,1-24.15a14,14,0,0,0-28-.21Z"/></g><g id="L_Dimple" data-name="L Dimple"><path class="cls-3" d="M166,552.79c-5,4.07.13.08,1.73-.85s3.23-1.73,4.88-2.54c3.23-1.6-1.45.37.85-.4,1.22-.4,2.42-.9,3.64-1.3,13.08-4.28,25.95-4.48,40.72-1.07,6.57,1.52,13.52-2.06,15.35-8.76,1.74-6.32-2.15-13.83-8.75-15.35-25.21-5.83-55.29-4.31-76.19,12.69-5.24,4.26-4.34,13.3.09,17.68,5.23,5.16,12.42,4.18,17.68-.1Z"/></g><g id="R_Dimple" data-name="R Dimple"><path class="cls-3" d="M873.82,531.78c-20.82-16.93-50.94-18.4-76-12.61-15.69,3.63-9.2,27.77,6.47,24.15,14.56-3.37,27.59-3.26,40.71,1,1.23.4,2.42.89,3.64,1.3,2.18.73-2.09-1.07,1,.45,1.65.81,3.29,1.61,4.88,2.54s6.32,4.64,1.74.91c5.23,4.25,12.61,5,17.68-.1,4.39-4.44,5.17-13.39-.1-17.68Z"/></g></svg>